<svg xmlns="http://www.w3.org/2000/svg" viewBox="0 0 600 400" role="img" aria-labelledby="title desc">
  <title id="title">Accessories and docking setup</title>
  <desc id="desc">Monitor, docking station, webcam, headset, keyboard, and mouse setup.</desc>
  <rect width="600" height="400" rx="18" fill="#f8fbff"/>
  <rect x="70" y="62" width="460" height="276" rx="20" fill="#fff" stroke="#dbe7f5" stroke-width="3"/>
  <rect x="156" y="96" width="210" height="120" rx="12" fill="#0f172a"/>
  <rect x="174" y="114" width="174" height="84" rx="7" fill="#dbeafe"/>
  <rect x="242" y="216" width="38" height="28" fill="#64748b"/>
  <rect x="202" y="244" width="118" height="12" rx="6" fill="#94a3b8"/>
  <rect x="386" y="168" width="92" height="42" rx="9" fill="#1e293b"/>
  <circle cx="432" cy="188" r="10" fill="#22c55e"/>
  <path d="M296 268h136" stroke="#2563eb" stroke-width="8" stroke-linecap="round"/>
  <rect x="178" y="282" width="194" height="36" rx="10" fill="#eff6ff" stroke="#bfdbfe" stroke-width="3"/>
  <circle cx="420" cy="298" r="20" fill="#f0fdf4" stroke="#bbf7d0" stroke-width="3"/>
  <path d="M118 178c0-34 28-62 62-62" fill="none" stroke="#0f766e" stroke-width="9" stroke-linecap="round"/>
  <path d="M118 178v34c0 15 12 27 27 27h18" fill="none" stroke="#0f766e" stroke-width="9" stroke-linecap="round"/>
  <path d="M420 104h38c18 0 32 14 32 32v30" fill="none" stroke="#b7791f" stroke-width="7" stroke-linecap="round"/>
  <text x="300" y="366" font-family="Arial, sans-serif" font-size="20" font-weight="700" fill="#0b1220" text-anchor="middle">Accessories &amp; Docking Setup</text>
</svg>
