<svg xmlns="http://www.w3.org/2000/svg" viewBox="0 0 600 400" role="img" aria-labelledby="title desc">
  <title id="title">Law office IT support</title>
  <desc id="desc">Legal document security, case files, and protected client communication illustration.</desc>
  <rect width="600" height="400" rx="18" fill="#f8fbff"/>
  <rect x="76" y="62" width="448" height="276" rx="20" fill="#fff" stroke="#dbe7f5" stroke-width="3"/>
  <rect x="130" y="108" width="162" height="210" rx="10" fill="#f8fafc" stroke="#cbd5e1" stroke-width="3"/>
  <rect x="154" y="140" width="114" height="10" rx="5" fill="#2563eb"/>
  <rect x="154" y="170" width="92" height="8" rx="4" fill="#94a3b8"/>
  <rect x="154" y="194" width="104" height="8" rx="4" fill="#94a3b8"/>
  <rect x="154" y="218" width="76" height="8" rx="4" fill="#94a3b8"/>
  <path d="M372 120v92M332 170h80" stroke="#b7791f" stroke-width="10" stroke-linecap="round"/>
  <path d="M350 212l-38 62h76l-38-62zM394 212l-38 62h76l-38-62z" fill="none" stroke="#b7791f" stroke-width="7" stroke-linejoin="round"/>
  <rect x="338" y="288" width="104" height="14" rx="7" fill="#0f172a"/>
  <circle cx="284" cy="276" r="28" fill="#0f766e"/>
  <path d="M272 276l8 8 18-22" fill="none" stroke="#fff" stroke-width="6" stroke-linecap="round" stroke-linejoin="round"/>
  <text x="300" y="366" font-family="Arial, sans-serif" font-size="20" font-weight="700" fill="#0b1220" text-anchor="middle">Legal IT &amp; Document Security</text>
</svg>
