<svg xmlns="http://www.w3.org/2000/svg" viewBox="0 0 600 400" role="img" aria-labelledby="title desc">
  <title id="title">Microsoft 365 collaboration illustration</title>
  <desc id="desc">Abstract email, documents, cloud storage, and team collaboration interface.</desc>

  <rect width="600" height="400" rx="18" fill="#f8fbff"/>
  <rect x="70" y="68" width="460" height="264" rx="18" fill="#ffffff" stroke="#dbe7f5" stroke-width="3"/>

  <rect x="100" y="104" width="170" height="116" rx="12" fill="#eef5ff" stroke="#bfdbfe" stroke-width="2"/>
  <rect x="122" y="126" width="126" height="12" rx="6" fill="#2563eb"/>
  <rect x="122" y="154" width="94" height="10" rx="5" fill="#93c5fd"/>
  <rect x="122" y="180" width="118" height="10" rx="5" fill="#bfdbfe"/>

  <rect x="312" y="104" width="188" height="116" rx="12" fill="#f0fdf4" stroke="#bbf7d0" stroke-width="2"/>
  <circle cx="354" cy="148" r="24" fill="#16a34a"/>
  <circle cx="414" cy="148" r="24" fill="#22c55e"/>
  <circle cx="474" cy="148" r="24" fill="#86efac"/>
  <rect x="340" y="186" width="132" height="10" rx="5" fill="#86efac"/>

  <rect x="100" y="244" width="170" height="58" rx="12" fill="#fff7ed" stroke="#fed7aa" stroke-width="2"/>
  <path d="M122 266h126v20H122z" fill="#f97316"/>
  <path d="M122 266l63 35 63-35" fill="none" stroke="#fff7ed" stroke-width="6" stroke-linejoin="round"/>

  <rect x="312" y="244" width="188" height="58" rx="12" fill="#f5f3ff" stroke="#ddd6fe" stroke-width="2"/>
  <path d="M352 283c-18 0-32-12-32-28 0-14 11-25 26-27 8-15 24-24 43-24 25 0 45 17 49 39 16 3 28 15 28 30 0 17-15 30-34 30H352z" fill="#7c3aed" opacity=".88"/>
  <rect x="354" y="270" width="76" height="8" rx="4" fill="#ffffff" opacity=".9"/>

  <line x1="270" y1="162" x2="312" y2="162" stroke="#94a3b8" stroke-width="3" stroke-dasharray="7 7"/>
  <line x1="185" y1="220" x2="185" y2="244" stroke="#94a3b8" stroke-width="3" stroke-dasharray="7 7"/>
  <line x1="406" y1="220" x2="406" y2="244" stroke="#94a3b8" stroke-width="3" stroke-dasharray="7 7"/>

  <text x="300" y="360" font-family="Arial, sans-serif" font-size="20" font-weight="700" fill="#0b1220" text-anchor="middle">Microsoft 365 Collaboration</text>
</svg>
