<svg xmlns="http://www.w3.org/2000/svg" viewBox="0 0 600 400" role="img" aria-labelledby="title desc">
  <title id="title">Server lifecycle management</title>
  <desc id="desc">Server health, upgrade planning, migration, and replacement lifecycle.</desc>
  <rect width="600" height="400" rx="18" fill="#f8fbff"/>
  <rect x="72" y="62" width="456" height="276" rx="20" fill="#fff" stroke="#dbe7f5" stroke-width="3"/>
  <circle cx="300" cy="196" r="90" fill="#eff6ff" stroke="#bfdbfe" stroke-width="4"/>
  <path d="M300 106a90 90 0 0 1 78 45" fill="none" stroke="#2563eb" stroke-width="10" stroke-linecap="round"/>
  <path d="M390 196a90 90 0 0 1-45 78" fill="none" stroke="#0f766e" stroke-width="10" stroke-linecap="round"/>
  <path d="M300 286a90 90 0 0 1-78-45" fill="none" stroke="#b7791f" stroke-width="10" stroke-linecap="round"/>
  <path d="M210 196a90 90 0 0 1 45-78" fill="none" stroke="#64748b" stroke-width="10" stroke-linecap="round"/>
  <rect x="258" y="154" width="84" height="84" rx="10" fill="#0f172a"/>
  <rect x="274" y="174" width="52" height="9" rx="4" fill="#60a5fa"/>
  <rect x="274" y="197" width="52" height="9" rx="4" fill="#60a5fa"/>
  <circle cx="324" cy="220" r="5" fill="#22c55e"/>
  <text x="176" y="126" font-family="Arial, sans-serif" font-size="13" font-weight="700" fill="#0b1220">Assess</text>
  <text x="394" y="126" font-family="Arial, sans-serif" font-size="13" font-weight="700" fill="#0b1220">Upgrade</text>
  <text x="396" y="288" font-family="Arial, sans-serif" font-size="13" font-weight="700" fill="#0b1220">Migrate</text>
  <text x="158" y="288" font-family="Arial, sans-serif" font-size="13" font-weight="700" fill="#0b1220">Retire</text>
  <text x="300" y="366" font-family="Arial, sans-serif" font-size="20" font-weight="700" fill="#0b1220" text-anchor="middle">Lifecycle Planning</text>
</svg>
