<svg xmlns="http://www.w3.org/2000/svg" viewBox="0 0 600 400" role="img" aria-labelledby="title desc">
  <title id="title">Business server rack</title>
  <desc id="desc">Server rack with redundant storage, power, and network connections.</desc>
  <rect width="600" height="400" rx="18" fill="#f8fbff"/>
  <rect x="86" y="54" width="428" height="292" rx="20" fill="#fff" stroke="#dbe7f5" stroke-width="3"/>
  <rect x="174" y="88" width="252" height="220" rx="12" fill="#0f172a"/>
  <rect x="196" y="112" width="208" height="34" rx="6" fill="#1e293b"/>
  <rect x="196" y="160" width="208" height="34" rx="6" fill="#1e293b"/>
  <rect x="196" y="208" width="208" height="34" rx="6" fill="#1e293b"/>
  <rect x="196" y="256" width="208" height="34" rx="6" fill="#1e293b"/>
  <g fill="#22c55e">
    <circle cx="220" cy="129" r="5"/><circle cx="220" cy="177" r="5"/><circle cx="220" cy="225" r="5"/><circle cx="220" cy="273" r="5"/>
  </g>
  <g stroke="#60a5fa" stroke-width="5" stroke-linecap="round">
    <path d="M244 129h126"/><path d="M244 177h126"/><path d="M244 225h126"/><path d="M244 273h126"/>
  </g>
  <path d="M426 132h42v152h-42" fill="none" stroke="#2563eb" stroke-width="5" stroke-linecap="round" stroke-linejoin="round"/>
  <circle cx="470" cy="132" r="8" fill="#2563eb"/>
  <circle cx="470" cy="208" r="8" fill="#2563eb"/>
  <circle cx="470" cy="284" r="8" fill="#2563eb"/>
  <text x="300" y="366" font-family="Arial, sans-serif" font-size="20" font-weight="700" fill="#0b1220" text-anchor="middle">Server Infrastructure</text>
</svg>
